<svg width="48" height="48" viewBox="0 0 48 48" fill="none" xmlns="http://www.w3.org/2000/svg">
<path d="M35.581 19.0006C35.2739 19.0017 34.9739 18.9085 34.7215 18.7336C34.4691 18.5587 34.2765 18.3105 34.1696 18.0226C34.0628 17.7348 34.0468 17.421 34.124 17.1238C34.2011 16.8266 34.3676 16.5602 34.601 16.3606L38.601 13.0006C39.0848 12.558 39.4675 12.0162 39.7229 11.4121C39.9783 10.8081 40.1005 10.1561 40.081 9.50062V7.14062C40.081 7.00802 40.0283 6.88084 39.9345 6.78707C39.8408 6.6933 39.7136 6.64062 39.581 6.64062H35.581C35.1832 6.64062 34.8016 6.48259 34.5203 6.20128C34.239 5.91998 34.081 5.53845 34.081 5.14062C34.081 4.7428 34.239 4.36127 34.5203 4.07996C34.8016 3.79866 35.1832 3.64063 35.581 3.64062H39.581C40.5076 3.64588 41.3948 4.01631 42.05 4.67155C42.7053 5.3268 43.0757 6.21399 43.081 7.14062V9.50062C43.0786 10.5782 42.8454 11.6427 42.3969 12.6225C41.9484 13.6023 41.2951 14.4746 40.481 15.1806L36.481 18.5606C36.2393 18.8048 35.9221 18.9599 35.581 19.0006ZM11.581 19.3606C11.2221 19.3601 10.8749 19.2326 10.601 19.0006L6.60098 15.6206C5.78689 14.9146 5.13359 14.0423 4.68509 13.0625C4.23659 12.0827 4.00331 11.0182 4.00098 9.94062V7.50062C4.00355 7.03497 4.0985 6.57445 4.28032 6.14574C4.46214 5.71704 4.72721 5.32867 5.06019 5.00313C5.39316 4.6776 5.78742 4.42137 6.22013 4.24928C6.65283 4.0772 7.11538 3.99268 7.58098 4.00062H11.581C11.9788 4.00062 12.3603 4.15866 12.6416 4.43996C12.9229 4.72127 13.081 5.1028 13.081 5.50062C13.081 5.89845 12.9229 6.27998 12.6416 6.56129C12.3603 6.84259 11.9788 7.00062 11.581 7.00062H7.58098C7.44837 7.00062 7.32119 7.0533 7.22742 7.14707C7.13366 7.24084 7.08098 7.36802 7.08098 7.50062V9.94062C7.083 10.5888 7.22318 11.2291 7.49218 11.8188C7.76118 12.4086 8.15282 12.9342 8.64098 13.3606L12.641 16.7206C12.8805 16.9244 13.05 17.1983 13.1254 17.5036C13.2008 17.809 13.1783 18.1303 13.0611 18.4221C12.9439 18.714 12.738 18.9616 12.4724 19.13C12.2068 19.2984 11.8949 19.3791 11.581 19.3606Z" fill="#0257B9"/>
<path d="M30.8217 25.38C32.7641 24.3741 34.3824 22.8395 35.4901 20.9534C36.5977 19.0672 37.1495 16.9063 37.0817 14.72V3.5C37.1143 2.61007 36.7944 1.74323 36.1915 1.08787C35.5885 0.432499 34.7513 0.0415588 33.8617 0H13.3017C12.4122 0.0415588 11.575 0.432499 10.972 1.08787C10.3691 1.74323 10.0492 2.61007 10.0817 3.5V14.72C10.014 16.9063 10.5658 19.0672 11.6734 20.9534C12.781 22.8395 14.3994 24.3741 16.3417 25.38L18.6617 26.46V30H15.5817C14.6551 30.0053 13.7679 30.3757 13.1127 31.0309C12.4574 31.6862 12.087 32.5734 12.0817 33.5V35.5C12.087 36.4266 12.4574 37.3138 13.1127 37.9691C13.7679 38.6243 14.6551 38.9947 15.5817 39H31.5817C32.5084 38.9947 33.3956 38.6243 34.0508 37.9691C34.7061 37.3138 35.0765 36.4266 35.0817 35.5V33.5C35.0765 32.5734 34.7061 31.6862 34.0508 31.0309C33.3956 30.3757 32.5084 30.0053 31.5817 30H28.5017V26.46L30.8217 25.38ZM32.0817 33.5V35.5C32.0817 35.6326 32.0291 35.7598 31.9353 35.8536C31.8415 35.9473 31.7144 36 31.5817 36H15.5817C15.4491 36 15.322 35.9473 15.2282 35.8536C15.1344 35.7598 15.0817 35.6326 15.0817 35.5V33.5C15.0817 33.3674 15.1344 33.2402 15.2282 33.1464C15.322 33.0527 15.4491 33 15.5817 33H31.5817C31.7144 33 31.8415 33.0527 31.9353 33.1464C32.0291 33.2402 32.0817 33.3674 32.0817 33.5ZM21.5817 30V25.5C21.5806 25.2129 21.4971 24.9321 21.3411 24.691C21.1851 24.4499 20.9632 24.2587 20.7017 24.14L17.5817 22.66C16.1568 21.8812 14.9782 20.7192 14.1794 19.3054C13.3806 17.8916 12.9935 16.2824 13.0617 14.66V3.5C13.0506 3.40462 13.0652 3.30802 13.1039 3.22013C13.1425 3.13224 13.2039 3.05626 13.2817 3H33.8617C33.9367 3.05886 33.9959 3.13527 34.0343 3.22248C34.0727 3.30968 34.089 3.405 34.0817 3.5V14.72C34.15 16.3424 33.7628 17.9516 32.964 19.3654C32.1652 20.7792 30.9867 21.9412 29.5617 22.72L26.3817 24.2C26.1442 24.3253 25.9447 24.512 25.804 24.7406C25.6633 24.9693 25.5865 25.2315 25.5817 25.5V30H21.5817Z" fill="#0257B9"/>
</svg>
