<svg width="40" height="38" viewBox="0 0 40 38" fill="none" xmlns="http://www.w3.org/2000/svg">
<path d="M25.5748 24.6026L26.4689 23.706C27.7042 22.4671 29.6278 22.2117 31.2081 23.0786L34.9532 25.135C37.3591 26.4551 37.8905 29.691 36.0101 31.5772L33.2258 34.3717C32.516 35.0842 31.6376 35.6028 30.6258 35.6978M1.85521 9.53321C1.78658 8.30612 2.35521 7.20175 3.20619 6.34675L6.28462 3.25925C7.99835 1.53737 10.8885 1.80456 12.3846 3.82133L14.8572 7.15425C16.067 8.78508 15.9356 11.0176 14.5493 12.407L13.9885 12.973" stroke="#0257B9" stroke-width="3"/>
<path d="M30.6261 35.6978C27.43 35.9986 19.6182 35.6661 11.2927 27.3101C3.43978 19.429 2.03194 12.6741 1.85547 9.53516" stroke="#0257B9" stroke-width="3"/>
<path d="M25.5746 24.6003C25.5746 24.6003 23.453 26.7299 17.6589 20.9151C11.8648 15.1003 13.9883 12.9688 13.9883 12.9688" stroke="#0257B9" stroke-width="3" stroke-linecap="round"/>
</svg>
