<svg width="36" height="40" viewBox="0 0 36 40" fill="none" xmlns="http://www.w3.org/2000/svg">
<g clip-path="url(#clip0_1716_34364)">
<path d="M17.9432 30.4286C17.7132 29.9234 17.2371 29.5548 16.6609 29.4893C16.1729 29.4336 15.6951 29.3291 15.2408 29.1784C15.0371 29.1098 14.846 29.0351 14.669 28.9549L14.963 28.1534C15.1707 28.2461 15.3846 28.3308 15.6036 28.4075L15.6127 28.4107L15.622 28.4138C16.3248 28.646 17.0164 28.7638 17.6772 28.7638C18.3408 28.7638 18.8218 28.6748 19.1913 28.4841L19.2134 28.4728L19.235 28.4602C19.7947 28.139 20.1159 27.5869 20.1159 26.9452C20.1159 26.2331 19.7318 25.642 19.0617 25.3226C18.7247 25.1587 18.246 25.0021 17.5564 24.8307C16.8492 24.6519 16.2551 24.4621 15.7943 24.2677C15.4575 24.1154 15.1653 23.8722 14.902 23.5245C14.6753 23.2142 14.5605 22.7476 14.5605 22.137C14.5605 21.4003 14.768 20.7922 15.1948 20.278C15.5748 19.8274 16.1144 19.5213 16.8385 19.3497C17.3757 19.2224 17.7947 18.8389 17.9831 18.3438C18.1961 18.8457 18.6492 19.2189 19.2131 19.3088C19.6842 19.3838 20.1166 19.5034 20.5054 19.6653L20.2348 20.4508C19.5007 20.1561 18.7781 20.0072 18.0793 20.0072C15.7583 20.0072 15.6408 21.6084 15.6408 21.9294C15.6408 22.6252 16.0166 23.2086 16.6718 23.5303L16.6901 23.5394L16.7087 23.5477C17.0397 23.6954 17.5093 23.8378 18.187 23.9957C18.8877 24.1541 19.4721 24.3355 19.9313 24.5367L19.9408 24.5409L19.9503 24.5448C20.2913 24.6867 20.5837 24.9236 20.8443 25.2692L20.8485 25.2746L20.8526 25.2801C21.0805 25.5746 21.1962 26.0301 21.1962 26.634C21.1962 27.331 20.9943 27.9209 20.579 28.4377C20.2188 28.8859 19.716 29.1962 19.0413 29.3862C18.5203 29.533 18.1162 29.9313 17.9432 30.4286Z" fill="#0257B9"/>
<path d="M18.5312 32.5159H17.4129C17.1627 32.5159 16.96 32.308 16.96 32.0514V31.1188C16.96 30.8736 16.7739 30.672 16.5361 30.6448C15.9698 30.5805 15.4222 30.4604 14.8929 30.2848C14.3786 30.1115 13.9331 29.9062 13.5564 29.6682C13.3832 29.5588 13.3202 29.3367 13.3918 29.1416L14.1589 27.0499C14.2623 26.7684 14.5956 26.6607 14.8522 26.8063C15.1987 27.0025 15.5713 27.1705 15.9694 27.3098C16.5628 27.5058 17.1323 27.6039 17.6776 27.6039C18.1466 27.6039 18.4817 27.5521 18.6826 27.4482C18.8835 27.3328 18.9841 27.1656 18.9841 26.9466C18.9841 26.6929 18.8501 26.5027 18.5821 26.3759C18.3238 26.2491 17.8929 26.1107 17.2902 25.9609C16.515 25.7648 15.869 25.5572 15.3523 25.3382C14.8355 25.1075 14.3856 24.7385 14.0029 24.2312C13.62 23.7124 13.4286 23.0147 13.4286 22.1384C13.4286 21.1236 13.7301 20.2531 14.3329 19.5266C14.8764 18.8823 15.6266 18.4466 16.5839 18.2197C16.7995 18.1686 16.96 17.9768 16.96 17.7501V16.7223C16.96 16.4657 17.1627 16.2578 17.4129 16.2578H18.5312C18.7813 16.2578 18.9841 16.4657 18.9841 16.7223V17.6913C18.9841 17.9287 19.1587 18.1263 19.3873 18.1628C20.226 18.2963 20.9629 18.5493 21.5979 18.9216C21.7782 19.0273 21.8497 19.2521 21.7805 19.4528L21.0626 21.5359C20.9676 21.812 20.6505 21.9289 20.3955 21.7969C19.5868 21.3789 18.815 21.1698 18.0797 21.1698C17.2087 21.1698 16.7732 21.4235 16.7732 21.9307C16.7732 22.173 16.9026 22.3574 17.1609 22.4844C17.4194 22.5996 17.8451 22.7264 18.4385 22.8649C19.204 23.0379 19.8502 23.2395 20.3765 23.4701C20.9028 23.6891 21.3573 24.0524 21.7403 24.5599C22.1326 25.0671 22.3288 25.759 22.3288 26.6353C22.3288 27.6038 22.0369 28.4514 21.453 29.1779C20.9446 29.811 20.2406 30.2541 19.3415 30.5075C19.1348 30.5658 18.9841 30.7535 18.9841 30.9732V32.0514C18.9841 32.308 18.7813 32.5159 18.5312 32.5159Z" fill="#0257B9"/>
<path fill-rule="evenodd" clip-rule="evenodd" d="M12.9886 2.32422H22.794C25.3054 2.32422 23.9263 6.18899 22.9094 8.54641L21.7523 11.2499L21.596 11.6145C22.692 11.56 23.776 11.8713 24.6848 12.5018C28.0848 15.6925 30.8443 19.5341 32.8078 23.8104C33.5729 25.3916 33.8764 27.1661 33.6818 28.9201C33.4481 33.3908 29.951 36.9534 25.5906 37.1629H10.192C5.83041 36.9597 2.32812 33.4008 2.08954 28.9294C1.89489 27.1754 2.19843 25.4009 2.96365 23.8197C4.92946 19.5392 7.69272 15.6942 11.0978 12.5018C12.0068 11.8713 13.0905 11.56 14.1865 11.6145L14.0054 11.1942L12.8732 8.54641C11.8609 6.18899 10.475 2.32422 12.9886 2.32422Z" stroke="#0257B9" stroke-width="3.09677" stroke-linecap="round" stroke-linejoin="round"/>
<path d="M21.5963 13.3537C22.5583 13.3537 23.3383 12.5738 23.3383 11.6117C23.3383 10.6497 22.5583 9.86978 21.5963 9.86978V13.3537ZM14.1868 9.86978C13.2248 9.86978 12.4449 10.6497 12.4449 11.6117C12.4449 12.5738 13.2248 13.3537 14.1868 13.3537V9.86978ZM27.8192 10.7985C28.6528 10.3183 28.9394 9.25325 28.4591 8.41963C27.9788 7.58601 26.9139 7.29952 26.0803 7.77974L27.8192 10.7985ZM21.7526 11.2471L22.0887 12.9563L22.0938 12.9553L21.7526 11.2471ZM14.0057 11.1913L14.3664 9.48704L14.3506 9.48384L14.0057 11.1913ZM9.67615 7.76452C8.83412 7.29919 7.7743 7.60454 7.30897 8.44655C6.84362 9.28858 7.14897 10.3484 7.991 10.8137L9.67615 7.76452ZM21.5963 9.86978H14.1868V13.3537H21.5963V9.86978ZM26.0803 7.77974C24.624 8.61856 23.0479 9.2121 21.4114 9.53886L22.0938 12.9553C24.1036 12.5539 26.0366 11.8255 27.8192 10.7985L26.0803 7.77974ZM21.4166 9.53786C19.0861 9.99615 16.6906 9.97882 14.3664 9.48704L13.6451 12.8955C16.4284 13.4844 19.2977 13.5051 22.0887 12.9563L21.4166 9.53786ZM14.3506 9.48384C12.7184 9.15433 11.1427 8.57506 9.67615 7.76452L7.991 10.8137C9.76733 11.7954 11.6786 12.4986 13.661 12.8988L14.3506 9.48384Z" fill="#0257B9"/>
</g>
<defs>
<clipPath id="clip0_1716_34364">
<rect width="36" height="39.4839" fill="white"/>
</clipPath>
</defs>
</svg>
