<svg width="48" height="48" viewBox="0 0 48 48" fill="none" xmlns="http://www.w3.org/2000/svg">
<path d="M19.919 18.275L21.691 12.077C22.355 9.757 25.643 9.757 26.307 12.077L28.077 18.275C28.1891 18.6671 28.3992 19.0241 28.6876 19.3125C28.9759 19.6008 29.333 19.8109 29.725 19.923L35.923 21.693C38.243 22.357 38.243 25.645 35.923 26.309L29.725 28.079C29.333 28.1911 28.9759 28.4012 28.6876 28.6895C28.3992 28.9779 28.1891 29.3349 28.077 29.727L26.307 35.925C25.643 38.245 22.355 38.245 21.691 35.925L19.921 29.727C19.809 29.3349 19.5989 28.9779 19.3105 28.6895C19.0222 28.4012 18.6651 28.1911 18.273 28.079L12.075 26.309C9.75505 25.645 9.75505 22.357 12.075 21.693L18.273 19.923C18.6651 19.8109 19.0222 19.6008 19.3105 19.3125C19.5989 19.0241 19.809 18.6671 19.921 18.275M8.85905 8.567L9.61105 5.553C9.71105 5.149 10.287 5.149 10.387 5.553L11.141 8.567C11.1584 8.63738 11.1945 8.70172 11.2456 8.75316C11.2967 8.80459 11.3608 8.84117 11.431 8.859L14.447 9.613C14.851 9.713 14.851 10.287 14.447 10.389L11.431 11.143C11.361 11.1607 11.2971 11.1969 11.2461 11.248C11.195 11.2991 11.1587 11.363 11.141 11.433L10.387 14.449C10.287 14.853 9.71105 14.853 9.61105 14.449L8.85705 11.433C8.83938 11.363 8.8031 11.2991 8.75204 11.248C8.70099 11.1969 8.63706 11.1607 8.56705 11.143L5.55105 10.389C5.14705 10.289 5.14705 9.713 5.55105 9.613L8.56705 8.859C8.63731 8.84117 8.7014 8.80459 8.75248 8.75316C8.80356 8.70172 8.8417 8.63738 8.85905 8.567ZM36.859 36.569L37.611 33.553C37.711 33.149 38.285 33.149 38.387 33.553L39.141 36.569C39.1587 36.639 39.195 36.7029 39.2461 36.754C39.2971 36.8051 39.361 36.8413 39.431 36.859L42.447 37.613C42.851 37.713 42.851 38.287 42.447 38.389L39.431 39.143C39.361 39.1607 39.2971 39.1969 39.2461 39.248C39.195 39.2991 39.1587 39.363 39.141 39.433L38.387 42.449C38.287 42.853 37.713 42.853 37.611 42.449L36.857 39.433C36.8394 39.363 36.8031 39.2991 36.752 39.248C36.701 39.1969 36.6371 39.1607 36.567 39.143L33.551 38.389C33.147 38.289 33.147 37.713 33.551 37.613L36.567 36.859C36.6371 36.8413 36.701 36.8051 36.752 36.754C36.8031 36.7029 36.8414 36.639 36.859 36.569Z" stroke="#0257B9" stroke-width="3" stroke-miterlimit="10" stroke-linecap="round" stroke-linejoin="round"/>
</svg>
