<svg width="48" height="48" viewBox="0 0 48 48" fill="none" xmlns="http://www.w3.org/2000/svg">
<path d="M25.5112 0.319336C25.8834 0.211667 26.2808 0.230569 26.6411 0.373047C27.0014 0.515573 27.3046 0.773279 27.5024 1.10645C27.7001 1.43939 27.782 1.82856 27.7349 2.21289L26.0171 15.9648L25.9819 16.2461H37.9985C38.3382 16.2461 38.6711 16.3446 38.9556 16.5303C39.2401 16.7159 39.4643 16.981 39.6011 17.292C39.7377 17.6029 39.7806 17.9472 39.7251 18.2822C39.6696 18.6173 39.5181 18.9294 39.2886 19.1797L17.2886 43.1797C17.0178 43.4748 16.6534 43.6683 16.2573 43.7275C15.8613 43.7867 15.457 43.7078 15.1118 43.5049C14.7666 43.3015 14.5013 42.9856 14.3608 42.6104C14.2205 42.2352 14.2136 41.8233 14.3403 41.4434L19.4595 26.0752L19.5698 25.7461H9.99854C9.67609 25.7457 9.36028 25.656 9.08545 25.4873C8.81054 25.3186 8.58724 25.0775 8.44092 24.79C8.29463 24.5025 8.23094 24.18 8.25635 23.8584C8.2818 23.5368 8.39573 23.2278 8.58545 22.9668L8.58447 22.9658L24.5835 0.966797L24.5845 0.967773C24.813 0.654955 25.1391 0.427053 25.5112 0.319336ZM22.8481 9.30273L13.7241 21.8496L13.436 22.2461H21.9985C22.2756 22.2463 22.5488 22.3121 22.7954 22.4385C23.042 22.5649 23.2555 22.7488 23.4175 22.9736C23.5793 23.1984 23.6853 23.4586 23.7271 23.7324C23.7688 24.0062 23.7452 24.286 23.6577 24.5488L20.6255 33.6514L21.0474 33.8994L33.6372 20.165L34.021 19.7461H23.9985C23.7506 19.746 23.5058 19.6928 23.2798 19.5908C23.0537 19.4888 22.8512 19.3403 22.687 19.1543C22.523 18.9684 22.4008 18.7496 22.3276 18.5127C22.2545 18.2756 22.2324 18.0255 22.2632 17.7793L23.2993 9.48145L22.8481 9.30273Z" fill="#0257B9" stroke="white" stroke-width="0.5"/>
</svg>
