<svg width="48" height="48" viewBox="0 0 48 48" fill="none" xmlns="http://www.w3.org/2000/svg">
<path d="M35.5297 15.2602C35.5297 21.5243 30.4516 26.6024 24.1874 26.6024V22.9935C28.4585 22.9935 31.9208 19.5312 31.9208 15.2602H35.5297ZM24.1874 26.6024C17.9233 26.6024 12.8452 21.5243 12.8452 15.2602H16.4541C16.4541 19.5312 19.9164 22.9935 24.1874 22.9935V26.6024ZM12.8452 15.2602C12.8452 8.99604 17.9233 3.91797 24.1874 3.91797V7.52686C19.9164 7.52686 16.4541 10.9892 16.4541 15.2602H12.8452ZM24.1874 3.91797C30.4516 3.91797 35.5297 8.99604 35.5297 15.2602H31.9208C31.9208 10.9892 28.4585 7.52686 24.1874 7.52686V3.91797Z" fill="#0257B9"/>
<path d="M23.9297 24.7969V42.5835" stroke="#0257B9" stroke-width="3.60889" stroke-linecap="round" stroke-linejoin="round"/>
</svg>
