<svg width="40" height="40" viewBox="0 0 40 40" fill="none" xmlns="http://www.w3.org/2000/svg">
<path d="M37.3816 8.71162C38.0504 8.22412 38.2004 7.28662 37.7129 6.61787C37.2254 5.94912 36.2879 5.79912 35.6191 6.28662L30.9629 9.67412L30.3441 9.26162C29.1129 8.43662 27.6629 7.99912 26.1816 7.99912H13.4816C11.8129 7.99912 10.2004 8.55537 8.89414 9.56787L4.38164 6.28662C3.71289 5.79912 2.77539 5.94912 2.28789 6.61787C1.80039 7.28662 1.95039 8.22412 2.61914 8.71162L8.11914 12.7116C8.71914 13.1429 9.53789 13.0804 10.0629 12.5616L10.3066 12.3179C11.1504 11.4741 12.2941 10.9991 13.4879 10.9991H16.3816L10.6504 16.7304C9.67539 17.7054 9.67539 19.2866 10.6504 20.2679L10.7004 20.3179C13.6254 23.2491 18.3754 23.2491 21.3066 20.3179L23.0004 18.6241L29.1129 24.7366C30.0879 25.7116 30.0879 27.2929 29.1129 28.2741L28.5004 28.8866L26.5629 26.9491C25.9754 26.3616 25.0254 26.3616 24.4441 26.9491C23.8629 27.5366 23.8566 28.4866 24.4441 29.0679L26.1941 30.8179C25.1004 31.4679 23.8691 31.8616 22.5941 31.9741L19.5629 28.9366C18.9754 28.3491 18.0254 28.3491 17.4441 28.9366C16.8629 29.5241 16.8566 30.4741 17.4441 31.0554L18.3816 31.9929H18.1441C15.8879 31.9929 13.7254 31.0991 12.1316 29.5054L4.06289 21.4366C3.47539 20.8491 2.52539 20.8491 1.94414 21.4366C1.36289 22.0241 1.35664 22.9741 1.94414 23.5554L10.0129 31.6304C12.1691 33.7866 15.0941 34.9991 18.1441 34.9991H21.3816L21.4441 35.0616L21.5066 34.9991H21.8629C24.9129 34.9991 27.8379 33.7866 29.9941 31.6304L31.2379 30.3866C31.3129 30.3116 31.3816 30.2429 31.4504 30.1679C31.4941 30.1366 31.5316 30.0991 31.5691 30.0616L38.0629 23.5616C38.6504 22.9741 38.6504 22.0241 38.0629 21.4429C37.4754 20.8616 36.5254 20.8554 35.9441 21.4429L32.5816 24.8054C32.3191 24.0054 31.8754 23.2491 31.2379 22.6116L24.0629 15.4366C23.4754 14.8491 22.5254 14.8491 21.9441 15.4366L19.1879 18.1929C17.5316 19.8491 14.9066 19.9429 13.1441 18.4804L19.3129 12.3116C20.1504 11.4741 21.2879 10.9991 22.4754 10.9929H26.1941C27.0816 10.9929 27.9504 11.2554 28.6879 11.7491L30.1691 12.7491C30.6941 13.0991 31.3754 13.0804 31.8816 12.7116L37.3816 8.71162Z" fill="#0257B9"/>
</svg>
