<svg width="48" height="48" viewBox="0 0 48 48" fill="none" xmlns="http://www.w3.org/2000/svg">
<path d="M10.666 33.1853C14.0714 33.1853 16.832 30.7067 16.832 27.6493C16.832 24.5918 14.0714 22.1133 10.666 22.1133C7.26061 22.1133 4.5 24.5918 4.5 27.6493C4.5 30.7067 7.26061 33.1853 10.666 33.1853Z" stroke="#0257B9" stroke-width="2.5" stroke-linecap="round" stroke-linejoin="round"/>
<path d="M24.4879 21.1477C26.205 21.1477 27.5969 19.7557 27.5969 18.0387C27.5969 16.3216 26.205 14.9297 24.4879 14.9297C22.7709 14.9297 21.3789 16.3216 21.3789 18.0387C21.3789 19.7557 22.7709 21.1477 24.4879 21.1477Z" stroke="#0257B9" stroke-width="2.5" stroke-linecap="round" stroke-linejoin="round"/>
<path d="M10.6656 17.5265C13.0493 17.5265 14.9816 15.5942 14.9816 13.2105C14.9816 10.8269 13.0493 8.89453 10.6656 8.89453C8.28195 8.89453 6.34961 10.8269 6.34961 13.2105C6.34961 15.5942 8.28195 17.5265 10.6656 17.5265Z" stroke="#0257B9" stroke-width="2.5" stroke-linecap="round" stroke-linejoin="round"/>
<path d="M38.5152 32.169C41.2678 32.169 43.4992 30.1444 43.4992 27.647C43.4992 25.1496 41.2678 23.125 38.5152 23.125C35.7627 23.125 33.5312 25.1496 33.5312 27.647C33.5312 30.1444 35.7627 32.169 38.5152 32.169Z" stroke="#0257B9" stroke-width="2.5" stroke-linecap="round" stroke-linejoin="round"/>
<path d="M23.2552 39.1081C25.2418 39.1081 26.8522 37.4976 26.8522 35.5111C26.8522 33.5245 25.2418 31.9141 23.2552 31.9141C21.2686 31.9141 19.6582 33.5245 19.6582 35.5111C19.6582 37.4976 21.2686 39.1081 23.2552 39.1081Z" stroke="#0257B9" stroke-width="2.5" stroke-linecap="round" stroke-linejoin="round"/>
<path d="M10.666 22.1133V17.5273M15.54 24.2643L21.941 19.8203M16.832 27.6493H33.532M20.211 33.6023L15.985 30.4433" stroke="#0257B9" stroke-width="2.5" stroke-linecap="round" stroke-linejoin="round"/>
</svg>
