<svg width="48" height="48" viewBox="0 0 48 48" fill="none" xmlns="http://www.w3.org/2000/svg">
<path d="M4 28.9987C4 30.1806 4.23279 31.3509 4.68509 32.4428C5.13738 33.5348 5.80031 34.5269 6.63604 35.3626C8.32387 37.0505 10.6131 37.9987 13 37.9987H37C38.7719 38.0019 40.4791 37.333 41.7772 36.1269C43.0754 34.9208 43.8678 33.2673 43.9946 31.4999C44.1215 29.7325 43.5734 27.9828 42.4609 26.6037C41.3484 25.2245 39.7542 24.3186 38 24.0687C38.0195 20.6662 36.7993 17.3731 34.5674 14.8049C32.3354 12.2367 29.2446 10.5692 25.8726 10.1141C22.5007 9.65903 19.0784 10.4475 16.2455 12.3322C13.4127 14.2169 11.3631 17.0687 10.48 20.3547C8.6099 20.9001 6.96726 22.0376 5.7988 23.5963C4.63034 25.1549 3.99914 27.0507 4 28.9987Z" stroke="#0257B9" stroke-width="3" stroke-linejoin="round"/>
</svg>
