<svg width="24" height="24" viewBox="0 0 24 24" fill="none" xmlns="http://www.w3.org/2000/svg">
<path d="M7.5 5.5C7.08333 5.5 6.72917 5.64583 6.4375 5.9375C6.14583 6.22917 6 6.58333 6 7C6 7.41667 6.14583 7.77083 6.4375 8.0625C6.72917 8.35417 7.08333 8.5 7.5 8.5C7.91667 8.5 8.27083 8.35417 8.5625 8.0625C8.85417 7.77083 9 7.41667 9 7C9 6.58333 8.85417 6.22917 8.5625 5.9375C8.27083 5.64583 7.91667 5.5 7.5 5.5V5.5M7.5 15.5C7.08333 15.5 6.72917 15.6458 6.4375 15.9375C6.14583 16.2292 6 16.5833 6 17C6 17.4167 6.14583 17.7708 6.4375 18.0625C6.72917 18.3542 7.08333 18.5 7.5 18.5C7.91667 18.5 8.27083 18.3542 8.5625 18.0625C8.85417 17.7708 9 17.4167 9 17C9 16.5833 8.85417 16.2292 8.5625 15.9375C8.27083 15.6458 7.91667 15.5 7.5 15.5V15.5M4 2.5H20C20.2833 2.5 20.5208 2.59583 20.7125 2.7875C20.9042 2.97917 21 3.21667 21 3.5V10.5C21 10.7833 20.9042 11.0208 20.7125 11.2125C20.5208 11.4042 20.2833 11.5 20 11.5H4C3.71667 11.5 3.47917 11.4042 3.2875 11.2125C3.09583 11.0208 3 10.7833 3 10.5V3.5C3 3.21667 3.09583 2.97917 3.2875 2.7875C3.47917 2.59583 3.71667 2.5 4 2.5V2.5M5 4.5V9.5H19V4.5H5V4.5M4 12.5H20C20.2833 12.5 20.5208 12.5958 20.7125 12.7875C20.9042 12.9792 21 13.2167 21 13.5V20.5C21 20.7833 20.9042 21.0208 20.7125 21.2125C20.5208 21.4042 20.2833 21.5 20 21.5H4C3.71667 21.5 3.47917 21.4042 3.2875 21.2125C3.09583 21.0208 3 20.7833 3 20.5V13.5C3 13.2167 3.09583 12.9792 3.2875 12.7875C3.47917 12.5958 3.71667 12.5 4 12.5V12.5M5 14.5V19.5H19V14.5H5V14.5M5 4.5V4.5V9.5V9.5V4.5V4.5M5 14.5V14.5V19.5V19.5V14.5V14.5" fill="currentColor"/>
</svg>
