<svg width="24" height="24" viewBox="0 0 24 24" fill="none" xmlns="http://www.w3.org/2000/svg">
<path d="M4.67505 21.5C4.12505 21.5 3.65422 21.3042 3.26255 20.9125C2.87088 20.5208 2.67505 20.05 2.67505 19.5V15.5C2.67505 14.95 2.87088 14.4792 3.26255 14.0875C3.65422 13.6958 4.12505 13.5 4.67505 13.5H14.675V9.5H16.675V13.5H18.675C19.225 13.5 19.6959 13.6958 20.0875 14.0875C20.4792 14.4792 20.675 14.95 20.675 15.5V19.5C20.675 20.05 20.4792 20.5208 20.0875 20.9125C19.6959 21.3042 19.225 21.5 18.675 21.5H4.67505ZM4.67505 19.5H18.675V15.5H4.67505V19.5ZM6.67505 18.5C6.95838 18.5 7.19588 18.4042 7.38755 18.2125C7.57922 18.0208 7.67505 17.7833 7.67505 17.5C7.67505 17.2167 7.57922 16.9792 7.38755 16.7875C7.19588 16.5958 6.95838 16.5 6.67505 16.5C6.39172 16.5 6.15422 16.5958 5.96255 16.7875C5.77088 16.9792 5.67505 17.2167 5.67505 17.5C5.67505 17.7833 5.77088 18.0208 5.96255 18.2125C6.15422 18.4042 6.39172 18.5 6.67505 18.5ZM10.175 18.5C10.4584 18.5 10.6959 18.4042 10.8875 18.2125C11.0792 18.0208 11.175 17.7833 11.175 17.5C11.175 17.2167 11.0792 16.9792 10.8875 16.7875C10.6959 16.5958 10.4584 16.5 10.175 16.5C9.89172 16.5 9.65422 16.5958 9.46255 16.7875C9.27088 16.9792 9.17505 17.2167 9.17505 17.5C9.17505 17.7833 9.27088 18.0208 9.46255 18.2125C9.65422 18.4042 9.89172 18.5 10.175 18.5ZM13.675 18.5C13.9584 18.5 14.1959 18.4042 14.3875 18.2125C14.5792 18.0208 14.675 17.7833 14.675 17.5C14.675 17.2167 14.5792 16.9792 14.3875 16.7875C14.1959 16.5958 13.9584 16.5 13.675 16.5C13.3917 16.5 13.1542 16.5958 12.9625 16.7875C12.7709 16.9792 12.675 17.2167 12.675 17.5C12.675 17.7833 12.7709 18.0208 12.9625 18.2125C13.1542 18.4042 13.3917 18.5 13.675 18.5ZM13.925 8.75L12.475 7.3C12.9084 6.9 13.3917 6.58333 13.925 6.35C14.4584 6.11667 15.0417 6 15.675 6C16.3084 6 16.8917 6.11667 17.425 6.35C17.9584 6.58333 18.4417 6.9 18.875 7.3L17.425 8.75C17.1917 8.51667 16.9292 8.33333 16.6375 8.2C16.3459 8.06667 16.025 8 15.675 8C15.325 8 15.0042 8.06667 14.7125 8.2C14.4209 8.33333 14.1584 8.51667 13.925 8.75ZM11.425 6.25L10.025 4.85C10.7584 4.11667 11.6084 3.54167 12.575 3.125C13.5417 2.70833 14.575 2.5 15.675 2.5C16.775 2.5 17.8084 2.70833 18.775 3.125C19.7417 3.54167 20.5917 4.11667 21.325 4.85L19.925 6.25C19.375 5.7 18.7375 5.27083 18.0125 4.9625C17.2875 4.65417 16.5084 4.5 15.675 4.5C14.8417 4.5 14.0625 4.65417 13.3375 4.9625C12.6125 5.27083 11.975 5.7 11.425 6.25Z" fill="#0257B9"/>
</svg>
